<?xml version="1.0" encoding="UTF-8" standalone="no"?>
<!-- Created with Inkscape (http://www.inkscape.org/) -->

<svg
   width="24mm"
   height="24mm"
   viewBox="0 0 24 24"
   version="1.1"
   id="svg5"
   inkscape:version="1.1.2 (0a00cf5339, 2022-02-04)"
   sodipodi:docname="bat.png"
   xmlns:inkscape="http://www.inkscape.org/namespaces/inkscape"
   xmlns:sodipodi="http://sodipodi.sourceforge.net/DTD/sodipodi-0.dtd"
   xmlns="http://www.w3.org/2000/svg"
   xmlns:svg="http://www.w3.org/2000/svg">
  <sodipodi:namedview
     id="namedview7"
     pagecolor="#ffffff"
     bordercolor="#666666"
     borderopacity="1.0"
     inkscape:pageshadow="2"
     inkscape:pageopacity="0.0"
     inkscape:pagecheckerboard="true"
     inkscape:document-units="px"
     showgrid="true"
     inkscape:zoom="6.8133032"
     inkscape:cx="27.299534"
     inkscape:cy="46.820168"
     inkscape:window-width="1904"
     inkscape:window-height="979"
     inkscape:window-x="8"
     inkscape:window-y="57"
     inkscape:window-maximized="0"
     inkscape:current-layer="layer1">
    <inkscape:grid
       type="xygrid"
       id="grid824"
       dotted="false"
       spacingx="1.3229167"
       spacingy="1.3229167" />
  </sodipodi:namedview>
  <defs
     id="defs2" />
  <g
     inkscape:label="Layer 1"
     inkscape:groupmode="layer"
     id="layer1">
    <path
       id="rect870"
       style="fill:#000000;stroke-width:0.0545454;stroke-linecap:round;stroke-linejoin:bevel;paint-order:stroke fill markers"
       d="m 32.110703,-3.2468296 v 1.8040244 h 1.804024 v -1.8040244 z m 1.804024,1.8040244 v 1.8040241 h -1.804024 v 1.8040242 h -1.804025 v 1.803507 h -1.804024 v 5.4120732 h 1.804024 V 5.7727741 h 1.804025 v 3.6080492 h 1.804024 V 7.5767991 h 9.020121 v 1.8040242 h 1.804024 V 5.7727741 H 46.54238 V 2.1652431 H 44.738872 V 0.3612189 h -1.804024 v -1.8040241 h -1.804024 v 1.8040241 h -5.412073 v -1.8040241 z m 9.020121,0 h 1.804024 v -1.8040244 h -1.804024 z m 0,10.8236285 H 39.3268 v 1.8040237 h 3.608048 z m -9.020121,0 v 1.8040237 h 3.608048 V 9.3808233 Z m 0,-7.2155802 h 1.804024 v 1.803507 h -1.804024 z m 7.216097,0 h 1.804024 v 1.803507 h -1.804024 z m 5.412072,1.803507 v 5.4120732 h 1.803508 V 3.9687501 Z" />
    <path
       id="rect867"
       style="fill:#000000;fill-opacity:0.995914;stroke-width:0.375;stroke-linecap:round;stroke-linejoin:bevel;paint-order:stroke fill markers"
       d="m 37.372399,13.72526 v 2.480469 h -4.960938 v 2.480469 h -2.480469 v 4.960938 2.480468 h 4.960938 v 2.48047 h 2.480469 v -2.48047 h 4.960935 v 2.48047 h 2.48047 v -2.48047 h 4.960937 V 23.647136 18.686198 H 47.294273 V 16.205729 H 42.333334 V 13.72526 Z m 7.441405,14.882814 v 2.480469 h 2.480469 v -2.480469 z m 2.480469,2.480469 v 2.480468 h 2.480468 v -2.480468 z m -4.960939,-2.480469 h -4.960935 v 2.480469 h 4.960935 z m -7.441404,0 h -2.480469 v 2.480469 h 2.480469 z m -2.480469,2.480469 h -2.480469 v 2.480468 h 2.480469 z m 0,-9.921876 h 4.960938 v 2.480469 h -4.960938 z m 9.921873,0 h 4.960939 v 2.480469 h -4.960939 z" />
    <path
       id="rect1087"
       style="fill:#000000;fill-opacity:0.995914;stroke-width:0.375;stroke-linecap:round;stroke-linejoin:bevel;paint-order:stroke fill markers"
       d="m -18.190106,7.1106776 v 2.4804691 h -2.480468 v 2.4804683 h -2.480469 v 2.480469 h -2.480468 v 2.480469 2.480467 h 4.960937 v 2.48047 h 2.480468 v -2.48047 h 4.960939 v 2.48047 h 2.480468 v -2.48047 h 4.960938 V 17.032553 14.552084 H -8.26823 v -2.480469 h -2.480469 V 9.5911467 h -2.480468 V 7.1106776 Z m 7.441407,14.8828124 v 2.480467 H -8.26823 V 21.99349 Z m 2.480469,2.480467 v 2.480469 h 2.480469 v -2.480469 z m -2.480469,0 h -2.480468 v 2.480469 h 2.480468 z m -2.480468,0 V 21.99349 h -4.960939 v 2.480467 z m -4.960939,0 h -2.480468 v 2.480469 h 2.480468 z m -2.480468,0 V 21.99349 h -2.480469 v 2.480467 z m -2.480469,0 h -2.480468 v 2.480469 h 2.480468 z m 2.480469,-9.921873 h 2.480468 v 2.480469 h -2.480468 z m 7.441407,0 h 2.480468 v 2.480469 h -2.480468 z" />
    <path
       id="rect1685"
       style="fill:#000000;fill-opacity:0.995914;stroke-width:0.333333;stroke-linecap:round;stroke-linejoin:bevel;paint-order:stroke fill markers"
       d="m -20.284722,-14.11111 v 2.204861 2.204861 h 2.204861 v -2.204861 h 2.204862 v 8.8194447 h -2.204862 -2.204861 v 2.204861 h -2.204861 v 2.20486 h 2.204861 v 2.204862 h 2.204861 v 2.20486 h 4.409722 v -2.20486 h 2.204861 v 2.20486 h 4.4097221 v -2.20486 h 2.204861 v -2.204862 h 2.204861 v -2.20486 h -2.204861 v -2.204861 h -2.204861 -2.204861 v -8.8194447 h 2.204861 v 2.204861 h 2.204861 v -2.204861 -2.204861 h -4.409722 -2.2048611 v 11.0243057 h -2.204861 V -14.11111 h -2.20486 z m 2.204861,13.2291667 h 2.204862 v 2.20486 h -2.204862 z m 8.8194441,0 h 2.204861 v 2.20486 h -2.204861 z" />
    <path
       id="rect1843"
       style="fill:#000000;fill-opacity:0.995914;stroke-width:0.375;stroke-linecap:round;stroke-linejoin:bevel;paint-order:stroke fill markers"
       d="m 16.960938,2.0781248 v 2.4804687 h -2.48047 V 2.0781248 Z m -2.48047,2.4804687 v 2.4804691 h 2.48047 v 2.480468 h -2.48047 v 2.4804704 h 2.48047 V 9.5195306 h 2.480469 v -2.480468 h 2.480468 V 21.921875 h -2.480468 -2.480469 v -2.480468 h 2.480469 v -4.960939 h -2.480469 v 2.48047 h -2.48047 v 2.480469 H 9.5195306 v -2.480469 h -2.480468 v -2.48047 H 4.5585935 v 4.960939 h 2.4804691 v 2.480468 H 4.5585935 2.0781248 V 7.0390626 h 2.4804687 v 2.480468 h 2.4804691 v 2.4804704 h 2.480468 V 9.5195306 h -2.480468 v -2.480468 h 2.480468 V 4.5585935 Z m -4.9609374,0 H 7.0390626 V 2.0781248 h 2.480468 z" />
  </g>
</svg>
