<?xml version="1.0" encoding="UTF-8" standalone="no"?>
<!-- Created with Inkscape (http://www.inkscape.org/) -->

<svg
   width="24mm"
   height="24mm"
   viewBox="0 0 24 24"
   version="1.1"
   id="svg5"
   inkscape:version="1.1.2 (0a00cf5339, 2022-02-04)"
   sodipodi:docname="alien.svg"
   xmlns:inkscape="http://www.inkscape.org/namespaces/inkscape"
   xmlns:sodipodi="http://sodipodi.sourceforge.net/DTD/sodipodi-0.dtd"
   xmlns="http://www.w3.org/2000/svg"
   xmlns:svg="http://www.w3.org/2000/svg">
  <sodipodi:namedview
     id="namedview7"
     pagecolor="#ffffff"
     bordercolor="#666666"
     borderopacity="1.0"
     inkscape:pageshadow="2"
     inkscape:pageopacity="0.0"
     inkscape:pagecheckerboard="true"
     inkscape:document-units="px"
     showgrid="true"
     inkscape:zoom="6.8133032"
     inkscape:cx="47.84757"
     inkscape:cy="41.536387"
     inkscape:window-width="1904"
     inkscape:window-height="979"
     inkscape:window-x="8"
     inkscape:window-y="57"
     inkscape:window-maximized="0"
     inkscape:current-layer="layer1">
    <inkscape:grid
       type="xygrid"
       id="grid824"
       dotted="false"
       spacingx="1.3229167"
       spacingy="1.3229167" />
  </sodipodi:namedview>
  <defs
     id="defs2" />
  <g
     inkscape:label="Layer 1"
     inkscape:groupmode="layer"
     id="layer1">
    <path
       id="rect870"
       style="stroke-width:0.0545454;stroke-linecap:round;stroke-linejoin:bevel;paint-order:stroke fill markers;fill:#000000"
       d="m 28.021547,-1.9239129 v 1.8040244 h 1.804024 v -1.8040244 z m 1.804024,1.8040244 v 1.8040241 h -1.804024 v 1.8040242 h -1.804025 v 1.803507 H 24.413498 V 10.70374 h 1.804024 V 7.0956908 h 1.804025 V 10.70374 h 1.804024 V 8.8997158 h 9.020121 V 10.70374 h 1.804024 V 7.0956908 h 1.803508 V 3.4881598 H 40.649716 V 1.6841356 h -1.804024 v -1.8040241 h -1.804024 v 1.8040241 h -5.412073 v -1.8040241 z m 9.020121,0 h 1.804024 v -1.8040244 h -1.804024 z m 0,10.8236285 h -3.608048 v 1.804024 h 3.608048 z m -9.020121,0 v 1.804024 h 3.608048 V 10.70374 Z m 0,-7.2155802 h 1.804024 v 1.803507 h -1.804024 z m 7.216097,0 h 1.804024 v 1.803507 h -1.804024 z m 5.412072,1.803507 V 10.70374 h 1.803508 V 5.2916668 Z" />
    <path
       id="rect867"
       style="fill:#000000;fill-opacity:0.995914;stroke-width:0.375;stroke-linecap:round;stroke-linejoin:bevel;paint-order:stroke fill markers"
       d="M 9.5195313,2.0781248 V 4.5585934 H 4.5585935 V 7.0390621 H 2.0781249 V 12 14.480468 h 4.9609373 v 2.48047 h 2.4804691 v -2.48047 h 4.9609357 v 2.48047 h 2.48047 v -2.48047 h 4.960937 V 12 7.0390621 H 19.441406 V 4.5585934 H 14.480467 V 2.0781248 Z M 16.960937,16.960938 v 2.480469 h 2.480469 v -2.480469 z m 2.480469,2.480469 v 2.480468 h 2.480468 V 19.441407 Z M 14.480467,16.960938 H 9.5195313 v 2.480469 h 4.9609357 z m -7.4414048,0 H 4.5585935 v 2.480469 H 7.0390622 Z M 4.5585935,19.441407 H 2.0781249 v 2.480468 h 2.4804686 z m 0,-9.9218754 H 9.5195313 V 12 H 4.5585935 Z m 9.9218735,0 h 4.960939 V 12 h -4.960939 z" />
  </g>
</svg>
